<svg xmlns="http://www.w3.org/2000/svg" xmlns:xlink="http://www.w3.org/1999/xlink" width="9" height="14"><defs><path id="a" d="M7.5 11.727c-.386 0-.623-.155-.935-.487L1.178 5.494a.917.917 0 0 1 0-1.238.785.785 0 0 1 1.16 0L7.5 9.763l5.162-5.507a.785.785 0 0 1 1.16 0c.32.342.32.896 0 1.238l-5.368 5.725c-.318.34-.568.508-.954.508Z"/></defs><g fill="none" fill-rule="evenodd"><path fill="#none" d="M-1283-608H83v829h-1366z"/><g transform="matrix(-1 0 0 1 12 -1)"><path d="M0 0h15v16H0z"/><mask id="b" fill="#fff"><use xlink:href="#a"/></mask><g fill="#333" mask="url(#b)"><path d="M-76.875-57h169V73h-169z"/></g></g></g></svg>