<svg height="14" viewBox="0 0 9 14" width="9" xmlns="http://www.w3.org/2000/svg" xmlns:xlink="http://www.w3.org/1999/xlink"><mask id="a" fill="#fff"><path d="m7.5 11.7269472c-.38626931 0-.62349693-.1545737-.9352454-.4871054l-5.38699063-5.74612337c-.32035196-.34170875-.32035196-.89572811 0-1.23743686.32035196-.34170876.8397451-.34170876 1.16009706 0l5.16213897 5.50628156 5.162139-5.50628156c.3203519-.34170876.8397451-.34170876 1.160097 0 .320352.34170875.320352.89572811 0 1.23743686 0 0-3.5785467 3.81711648-5.36782001 5.72567467-.31813867.339348-.56814668.5075541-.95441599.5075541z" fill="#fff" fill-rule="evenodd"/></mask><g fill="none" fill-rule="evenodd" transform="matrix(-1 0 0 1 12 -1)"><path d="m0 0h15v16h-15z"/><g fill="#333" mask="url(#a)"><path d="m0 0h169v130h-169z" transform="translate(-76.875 -57)"/></g></g></svg>