<svg height="14" viewBox="0 0 16 14" width="16" xmlns="http://www.w3.org/2000/svg"><path d="m0 3.32630157c0-.54840121.44463086-.99296824 1.00087166-.99296824h13.99825664c.5527662 0 1.0008717.44034577 1.0008717.99296824v.68073019c0 .54840122-.4446309.99296824-1.0008717.99296824h-13.99825664c-.55276615 0-1.00087166-.44034576-1.00087166-.99296824zm0 5.33333334c0-.54840122.44463086-.99296824 1.00087166-.99296824h13.99825664c.5527662 0 1.0008717.44034576 1.0008717.99296824v.68073018c0 .54840122-.4446309.99296821-1.0008717.99296821h-13.99825664c-.55276615 0-1.00087166-.44034573-1.00087166-.99296821zm0 5.33333329c0-.5484012.44463086-.9929682 1.00087166-.9929682h13.99825664c.5527662 0 1.0008717.4403458 1.0008717.9929682v.6807302c0 .5484012-.4446309.9929683-1.0008717.9929683h-13.99825664c-.55276615 0-1.00087166-.4403458-1.00087166-.9929683z" fill="#333" fill-rule="evenodd" transform="translate(0 -2)"/></svg>